<svg width="64" height="48" viewBox="0 0 64 48" fill="none" xmlns="http://www.w3.org/2000/svg">
<path d="M50.33 27.85H49.66V28.59H50.33V27.85Z" fill="#FF8E1F"/>
<path d="M47.8081 31.2672L47.7484 32.5658L48.138 32.5837L48.1977 31.2851L47.8081 31.2672Z" fill="#CED1D6"/>
<path d="M46.0656 32.4191L45.9282 32.7841L47.1449 33.2421L47.2823 32.8771L46.0656 32.4191Z" fill="#CED1D6"/>
<path d="M47.2947 33.788L46.4832 34.8036L46.7878 35.0471L47.5994 34.0315L47.2947 33.788Z" fill="#CED1D6"/>
<path d="M48.4849 33.8349L48.1592 34.0494L48.8742 35.1351L49.1999 34.9205L48.4849 33.8349Z" fill="#CED1D6"/>
<path d="M49.838 32.5896L48.5845 32.9342L48.6878 33.3102L49.9413 32.9657L49.838 32.5896Z" fill="#CED1D6"/>
<path d="M40.48 34.09H36.1C35.4572 34.089 34.8177 33.9981 34.2 33.82L32.64 33.37V31.89H42.39V32.17C42.3913 32.4217 42.3429 32.6711 42.2475 32.904C42.1521 33.1369 42.0116 33.3486 41.8341 33.5271C41.6566 33.7055 41.4456 33.8471 41.2133 33.9437C40.9809 34.0403 40.7317 34.09 40.48 34.09Z" fill="#081B31"/>
<path d="M42.47 22.22L40.28 22.62C40.2059 22.6318 40.1302 22.6144 40.0687 22.5715C40.0071 22.5286 39.9646 22.4636 39.95 22.39C39.9382 22.3159 39.9556 22.2402 39.9985 22.1786C40.0414 22.1171 40.1064 22.0746 40.18 22.06L42.37 21.66L42.47 22.22Z" fill="#081B31"/>
<path d="M47.93 29.68C47.2081 29.68 46.5024 29.8941 45.9022 30.2951C45.302 30.6962 44.8341 31.2662 44.5579 31.9332C44.2816 32.6001 44.2093 33.334 44.3502 34.0421C44.491 34.7501 44.8386 35.4005 45.3491 35.9109C45.8596 36.4214 46.5099 36.769 47.218 36.9099C47.926 37.0507 48.6599 36.9784 49.3268 36.7022C49.9938 36.4259 50.5638 35.9581 50.9649 35.3578C51.366 34.7576 51.58 34.0519 51.58 33.33C51.58 32.362 51.1955 31.4336 50.511 30.7491C49.8265 30.0645 48.8981 29.68 47.93 29.68ZM47.93 35.18C47.5641 35.18 47.2065 35.0715 46.9022 34.8682C46.598 34.6649 46.3609 34.376 46.2209 34.038C46.0808 33.6999 46.0442 33.3279 46.1156 32.9691C46.187 32.6102 46.3632 32.2806 46.6219 32.0218C46.8806 31.7631 47.2103 31.5869 47.5691 31.5155C47.928 31.4442 48.3 31.4808 48.638 31.6208C48.976 31.7608 49.265 31.998 49.4683 32.3022C49.6715 32.6064 49.78 32.9641 49.78 33.33C49.7813 33.5738 49.7345 33.8154 49.6421 34.041C49.5497 34.2666 49.4136 34.4718 49.2417 34.6446C49.0698 34.8175 48.8654 34.9546 48.6403 35.0482C48.4152 35.1418 48.1738 35.19 47.93 35.19V35.18Z" fill="#081B31"/>
<path d="M47.93 31.12C47.4929 31.12 47.0656 31.2496 46.7022 31.4924C46.3387 31.7353 46.0555 32.0804 45.8882 32.4843C45.7209 32.8881 45.6772 33.3324 45.7624 33.7611C45.8477 34.1898 46.0582 34.5836 46.3673 34.8927C46.6763 35.2018 47.0701 35.4123 47.4988 35.4975C47.9275 35.5828 48.3719 35.539 48.7757 35.3718C49.1795 35.2045 49.5247 34.9212 49.7675 34.5578C50.0104 34.1944 50.14 33.7671 50.14 33.33C50.14 32.7439 49.9071 32.1817 49.4927 31.7673C49.0782 31.3528 48.5161 31.12 47.93 31.12ZM47.93 35.18C47.5641 35.18 47.2064 35.0715 46.9022 34.8682C46.5979 34.6649 46.3608 34.376 46.2208 34.038C46.0808 33.6999 46.0441 33.3279 46.1155 32.9691C46.1869 32.6102 46.3631 32.2806 46.6218 32.0218C46.8806 31.7631 47.2102 31.5869 47.5691 31.5155C47.9279 31.4442 48.2999 31.4808 48.6379 31.6208C48.976 31.7608 49.2649 31.998 49.4682 32.3022C49.6715 32.6064 49.78 32.9641 49.78 33.33C49.7813 33.5738 49.7344 33.8154 49.642 34.041C49.5496 34.2666 49.4136 34.4718 49.2417 34.6446C49.0697 34.8175 48.8654 34.9546 48.6403 35.0482C48.4151 35.1418 48.1738 35.19 47.93 35.19V35.18Z" fill="#CED1D6"/>
<path d="M49.2855 33.4945C49.317 32.8649 48.8321 32.329 48.2025 32.2975C47.5729 32.266 47.037 32.7509 47.0055 33.3805C46.974 34.0101 47.4589 34.546 48.0885 34.5775C48.7181 34.609 49.254 34.1241 49.2855 33.4945Z" fill="#CED1D6"/>
<path d="M48.1 33.43H48.04C47.9881 33.4595 47.9267 33.4677 47.8688 33.4528C47.811 33.4379 47.7612 33.401 47.73 33.35L46.29 30.89L46.75 30.62L48.19 33.08C48.2111 33.1076 48.2257 33.1397 48.2326 33.1738C48.2395 33.2079 48.2386 33.2431 48.23 33.2768C48.2213 33.3105 48.2051 33.3418 48.1826 33.3683C48.1601 33.3949 48.1319 33.416 48.1 33.43Z" fill="#CED1D6"/>
<path d="M42.4085 23.0443L41.7275 23.4448L46.7716 32.0216L47.4525 31.6211L42.4085 23.0443Z" fill="#FF8E1F"/>
<path d="M46.3499 27.38C43.6399 27.38 43.0699 30.71 43.0699 32.76H44.0699C44.2294 32.761 44.3843 32.7068 44.5082 32.6065C44.6322 32.5062 44.7176 32.3661 44.7499 32.21C44.8805 31.5455 45.2517 30.9525 45.7924 30.5447C46.333 30.1369 47.0051 29.943 47.6799 30H51.3999V29.6C50.9999 28.85 49.4299 27.38 46.3499 27.38Z" fill="#FF8E1F"/>
<path d="M44.48 31.94C44.42 32.28 44.11 32.4 43.77 32.4H43.08C43.08 32.52 43.08 32.64 43.08 32.75H44.08C44.2394 32.751 44.3943 32.6968 44.5182 32.5965C44.6422 32.4962 44.7276 32.3561 44.76 32.2C44.8925 31.5392 45.2631 30.9501 45.8014 30.5445C46.3397 30.1389 47.0082 29.9452 47.68 30H51.4V29.6H47.5C46.7976 29.5536 46.1025 29.766 45.5461 30.1971C44.9897 30.6283 44.6104 31.2483 44.48 31.94Z" fill="#081B31"/>
<path d="M46.7999 22.95H45.2V25.09H46.7999V22.95Z" fill="#FF8E1F"/>
<path d="M46.91 25.21H47C47.0822 25.21 47.1611 25.1773 47.2192 25.1192C47.2774 25.0611 47.31 24.9822 47.31 24.9V23.15C47.31 23.0678 47.2774 22.9889 47.2192 22.9308C47.1611 22.8727 47.0822 22.84 47 22.84H46.87C46.8409 22.84 46.8129 22.8516 46.7922 22.8722C46.7716 22.8928 46.76 22.9208 46.76 22.95V25.1C46.7587 25.1185 46.7622 25.1371 46.77 25.1539C46.7778 25.1708 46.7897 25.1854 46.8047 25.1963C46.8197 25.2073 46.8372 25.2143 46.8556 25.2167C46.874 25.2191 46.8928 25.2168 46.91 25.21Z" fill="#081B31"/>
<path d="M32.64 15.93H32.3C32.188 15.9316 32.0782 15.8989 31.9853 15.8363C31.8924 15.7738 31.8208 15.6844 31.78 15.58L30.66 12.75L30.97 12.63L32.09 15.46C32.1064 15.5021 32.1354 15.5381 32.173 15.5631C32.2105 15.5882 32.2549 15.601 32.3 15.6H32.64V15.93Z" fill="#081B31"/>
<path d="M25.23 26.35H14.1V24.69H25.23C25.4024 24.69 25.5677 24.7585 25.6896 24.8804C25.8115 25.0023 25.88 25.1676 25.88 25.34V25.7C25.88 25.8724 25.8115 26.0377 25.6896 26.1596C25.5677 26.2815 25.4024 26.35 25.23 26.35Z" fill="#081B31"/>
<path d="M22.75 33.35H41.22C41.3128 33.35 41.4018 33.3131 41.4675 33.2475C41.5331 33.1818 41.57 33.0928 41.57 33V32.86H22.75V33.35Z" fill="#081B31"/>
<path d="M20.71 34.06C20.6893 34.0657 20.6674 34.0665 20.6463 34.0624C20.6251 34.0583 20.6052 34.0494 20.5881 34.0363C20.5709 34.0233 20.5571 34.0064 20.5475 33.9871C20.5379 33.9678 20.533 33.9465 20.533 33.925C20.533 33.9034 20.5379 33.8822 20.5475 33.8629C20.5571 33.8436 20.5709 33.8267 20.5881 33.8136C20.6052 33.8006 20.6251 33.7917 20.6463 33.7875C20.6674 33.7834 20.6893 33.7843 20.71 33.79H23.06C24.8612 33.7094 26.6516 33.4685 28.41 33.07C28.4283 33.0591 28.4487 33.0525 28.4698 33.0507C28.491 33.0489 28.5122 33.052 28.532 33.0596C28.5518 33.0672 28.5696 33.0792 28.5841 33.0947C28.5986 33.1102 28.6093 33.1288 28.6155 33.1491C28.6218 33.1693 28.6233 33.1907 28.6201 33.2117C28.6168 33.2327 28.6089 33.2526 28.5968 33.27C28.5847 33.2875 28.5688 33.3019 28.5503 33.3123C28.5318 33.3227 28.5112 33.3287 28.49 33.33C26.7062 33.7388 24.8886 33.9832 23.06 34.06H20.71Z" fill="#081B31"/>
<path d="M20.71 34.37C20.6893 34.3757 20.6674 34.3765 20.6463 34.3724C20.6251 34.3683 20.6052 34.3594 20.5881 34.3463C20.5709 34.3333 20.5571 34.3164 20.5475 34.2971C20.5379 34.2778 20.533 34.2566 20.533 34.235C20.533 34.2135 20.5379 34.1922 20.5475 34.1729C20.5571 34.1536 20.5709 34.1367 20.5881 34.1237C20.6052 34.1106 20.6251 34.1017 20.6463 34.0976C20.6674 34.0935 20.6893 34.0943 20.71 34.1H23.06C24.4336 34.0264 25.8022 33.8795 27.16 33.66C27.1896 33.6681 27.2157 33.6857 27.2343 33.7101C27.2529 33.7345 27.263 33.7643 27.263 33.795C27.263 33.8257 27.2529 33.8555 27.2343 33.8799C27.2157 33.9043 27.1896 33.9219 27.16 33.93C25.7889 34.1504 24.4069 34.2973 23.02 34.37H20.71Z" fill="#081B31"/>
<path d="M26.69 33.3716L26.4618 33.3998L26.5478 34.0945L26.7761 34.0663L26.69 33.3716Z" fill="#081B31"/>
<path d="M23.67 33.93H21.32C19.4914 33.8532 17.6738 33.6088 15.89 33.2C15.863 33.1839 15.8423 33.1593 15.831 33.13C15.8197 33.1008 15.8186 33.0686 15.8278 33.0386C15.8371 33.0086 15.8561 32.9826 15.8819 32.9647C15.9076 32.9469 15.9386 32.9381 15.97 32.94C17.7316 33.3391 19.5254 33.5801 21.33 33.66H23.67C23.6995 33.6681 23.7256 33.6857 23.7442 33.7101C23.7628 33.7345 23.7729 33.7643 23.7729 33.795C23.7729 33.8257 23.7628 33.8555 23.7442 33.8799C23.7256 33.9043 23.6995 33.9219 23.67 33.93Z" fill="#081B31"/>
<path d="M16.43 32.86H15.98V33.4H16.43V32.86Z" fill="#081B31"/>
<path d="M42.3899 29H41.56C41.0362 28.991 40.5226 29.1447 40.09 29.44L37.45 31.36V32.52H42.3899V29Z" fill="#FF8E1F"/>
<path d="M37.48 26.98H32.92V32.03H37.48V26.98Z" fill="#FF8E1F"/>
<path d="M37.48 28.12H32.92V28.49H37.48V28.12Z" fill="#081B31"/>
<path d="M32.91 30.82H26.13V32.03H32.91V30.82Z" fill="#FF8E1F"/>
<path d="M33.81 25.95L33.23 21.7C33.2132 21.5736 33.1513 21.4575 33.0558 21.373C32.9603 21.2885 32.8375 21.2413 32.71 21.24H32.4C32.3197 21.2408 32.2405 21.2585 32.1676 21.2921C32.0946 21.3256 32.0296 21.3742 31.9767 21.4346C31.9239 21.495 31.8843 21.5659 31.8608 21.6427C31.8372 21.7194 31.8301 21.8003 31.84 21.88L32.63 27.63H38.07C38.1496 27.63 38.2259 27.5984 38.2821 27.5421C38.3384 27.4859 38.37 27.4096 38.37 27.33V26.6C38.37 26.5363 38.3447 26.4753 38.2997 26.4303C38.2547 26.3853 38.1937 26.36 38.13 26.36H34.31C34.1916 26.3619 34.0764 26.3218 33.9848 26.2467C33.8933 26.1716 33.8313 26.0665 33.81 25.95Z" fill="#081B31"/>
<path d="M33.2 12.76H32.64V31.29H33.2V12.76Z" fill="#081B31"/>
<path d="M26 22.25C25.8075 22.0798 25.5568 21.9903 25.3 22H19.3V22.36H24.3V23H21.63V23.27H24.2901V23.79H23.1901V24.15H24.2901V25.23H24.65V24.15H25.88C25.9352 24.15 25.9898 24.1391 26.0408 24.118C26.0917 24.0969 26.138 24.066 26.177 24.027C26.216 23.988 26.247 23.9417 26.2681 23.8907C26.2892 23.8398 26.3 23.7852 26.3 23.73V23.14C26.3149 22.9789 26.2958 22.8166 26.2442 22.6633C26.1925 22.51 26.1093 22.3692 26 22.25ZM24.67 22.37H25.34C25.4938 22.3662 25.6435 22.4196 25.76 22.52C25.8842 22.6495 25.9555 22.8207 25.96 23H24.65L24.67 22.37ZM25.9 23.79H24.65V23.27H25.9501V23.73C25.9488 23.7379 25.9461 23.7455 25.9419 23.7524C25.9377 23.7592 25.9321 23.7651 25.9256 23.7698C25.9191 23.7745 25.9117 23.7778 25.9039 23.7795C25.896 23.7813 25.8879 23.7814 25.88 23.78L25.9 23.79Z" fill="#081B31"/>
<path d="M32.92 13.13H24.33C24.0329 13.13 23.7481 13.248 23.538 13.458C23.328 13.6681 23.21 13.953 23.21 14.25V22.62H14.1V14.19C14.1063 13.7585 14.1989 13.3325 14.3721 12.9372C14.5453 12.5419 14.7958 12.1852 15.1088 11.8881C15.4218 11.5909 15.791 11.3593 16.1948 11.2068C16.5985 11.0543 17.0287 10.984 17.46 11L33.1 11.58H33.3L42.22 13.36C42.2676 13.3711 42.3102 13.3978 42.341 13.4358C42.3718 13.4739 42.389 13.5211 42.39 13.57V13.66H40.26L32.92 13.13Z" fill="#081B31"/>
<path d="M46.24 22H44.09C43.9303 22.0001 43.7749 21.9485 43.6469 21.853C43.5189 21.7575 43.4253 21.6231 43.38 21.47L41.31 14.37C41.2976 14.3267 41.2954 14.2811 41.3036 14.2369C41.3119 14.1926 41.3303 14.1509 41.3575 14.115C41.3846 14.0791 41.4198 14.05 41.4602 14.03C41.5005 14.0101 41.545 13.9998 41.59 14L41.37 13.61H40.26L41.7 22.76C41.7645 23.1641 41.7645 23.5759 41.7 23.98L40.83 29.34C40.7422 29.8761 40.4667 30.3635 40.0527 30.7152C39.6387 31.0669 39.1132 31.26 38.57 31.26H35.06C34.7364 31.26 34.4261 31.1315 34.1973 30.9027C33.9685 30.6739 33.84 30.3636 33.84 30.04V26.13C33.84 26.0531 33.8094 25.9793 33.755 25.9249C33.7007 25.8705 33.6269 25.84 33.55 25.84H32.29C32.2131 25.84 32.1393 25.8705 32.0849 25.9249C32.0305 25.9793 32 26.0531 32 26.13V30.05C32 30.3735 31.8714 30.6839 31.6426 30.9127C31.4139 31.1414 31.1035 31.27 30.78 31.27H28.3C27.7831 31.2699 27.2814 31.095 26.8765 30.7737C26.4716 30.4523 26.1874 30.0034 26.07 29.5L25.25 26C25.2006 25.7856 25.1268 25.5776 25.03 25.38L23.88 23C23.8208 22.8806 23.7296 22.78 23.6166 22.7094C23.5036 22.6388 23.3732 22.6009 23.24 22.6H14.1V30.24C14.0989 30.8929 14.3252 31.5258 14.74 32.03L15.08 32.44C15.1808 32.5624 15.3075 32.661 15.4511 32.7284C15.5946 32.7959 15.7514 32.8306 15.91 32.83H41.79C42.2898 32.8312 42.778 32.6795 43.1891 32.3953C43.6002 32.1111 43.9145 31.708 44.09 31.24L46.45 24.93C46.6274 24.4552 46.7005 23.9477 46.6642 23.4421C46.628 22.9365 46.4833 22.4447 46.24 22Z" fill="#FF8E1F"/>
<path d="M20.98 37.05C22.9958 37.05 24.63 35.4158 24.63 33.4C24.63 31.3842 22.9958 29.75 20.98 29.75C18.9641 29.75 17.33 31.3842 17.33 33.4C17.33 35.4158 18.9641 37.05 20.98 37.05Z" fill="#081B31"/>
<path d="M20.98 35.61C22.2006 35.61 23.19 34.6206 23.19 33.4C23.19 32.1795 22.2006 31.19 20.98 31.19C19.7595 31.19 18.77 32.1795 18.77 33.4C18.77 34.6206 19.7595 35.61 20.98 35.61Z" fill="#CED1D6"/>
<path d="M21 28.08C20.3664 28.0598 19.7353 28.1677 19.1444 28.3972C18.5536 28.6267 18.0151 28.9732 17.5613 29.4158C17.1075 29.8584 16.7477 30.388 16.5035 30.9729C16.2593 31.5579 16.1356 32.1861 16.14 32.82H17.38C17.5394 32.821 17.6943 32.7668 17.8183 32.6665C17.9422 32.5662 18.0277 32.4261 18.06 32.27C18.2029 31.6115 18.5794 31.0269 19.1198 30.6244C19.6602 30.2218 20.3281 30.0284 21 30.08C21.6695 30.0397 22.3311 30.2419 22.8637 30.6496C23.3963 31.0573 23.7642 31.6432 23.9 32.3C23.9324 32.4561 24.0178 32.5962 24.1417 32.6965C24.2657 32.7968 24.4206 32.851 24.58 32.85H25.85C25.8584 32.2145 25.7381 31.5838 25.4963 30.9961C25.2545 30.4083 24.8962 29.8755 24.4431 29.4299C23.9899 28.9842 23.4513 28.6348 22.8596 28.4029C22.2678 28.1709 21.6353 28.0611 21 28.08Z" fill="#FF8E1F"/>
<path d="M37.93 32.85H26.85V32.77C26.85 32.6321 26.9048 32.4998 27.0023 32.4023C27.0998 32.3048 27.2321 32.25 27.37 32.25H37.93C39.62 32.25 40.44 31.35 40.76 29.69C40.9 28.98 41.76 23.21 41.76 23.16H41.81C41.8494 23.1598 41.8884 23.1679 41.9245 23.1838C41.9606 23.1997 41.9929 23.2231 42.0194 23.2523C42.0458 23.2816 42.0658 23.3161 42.0779 23.3536C42.0901 23.3911 42.0942 23.4308 42.09 23.47C42 24.66 41.48 29.22 41.35 29.85C40.95 31.9 40 32.85 37.93 32.85Z" fill="#081B31"/>
<path d="M14.36 31.18H14C13.878 31.18 13.761 31.1315 13.6748 31.0453C13.5885 30.959 13.54 30.842 13.54 30.72V29.64C13.54 29.518 13.5885 29.401 13.6748 29.3147C13.761 29.2285 13.878 29.18 14 29.18H14.37L14.36 31.18Z" fill="#081B31"/>
<path d="M43.92 22H46.24L41.62 14H41.42C41.375 13.9998 41.3306 14.0101 41.2902 14.0301C41.2499 14.05 41.2147 14.0791 41.1875 14.115C41.1604 14.1509 41.1419 14.1926 41.1337 14.2369C41.1254 14.2812 41.1276 14.3267 41.14 14.37L43.21 21.47C43.2554 21.6231 43.349 21.7575 43.477 21.853C43.6049 21.9485 43.7603 22.0001 43.92 22Z" fill="#CED1D6"/>
<path d="M46.42 22.41H41.65L41.71 22.77V22.83H46.56C46.5222 22.6872 46.4754 22.5469 46.42 22.41Z" fill="#081B31"/>
<path d="M21.54 23.93C21.4551 23.93 21.3737 23.8963 21.3137 23.8363C21.2537 23.7763 21.22 23.6949 21.22 23.61V22.18H21.89V23.61C21.8902 23.6547 21.881 23.6989 21.8631 23.7398C21.8452 23.7807 21.8189 23.8174 21.7859 23.8476C21.7529 23.8777 21.714 23.9006 21.6717 23.9148C21.6293 23.929 21.5844 23.9342 21.54 23.93Z" fill="#081B31"/>
<path d="M22.06 23.13H20.98V23.4H22.06V23.13Z" fill="#E73324"/>
<path d="M15.87 23.93C15.7852 23.93 15.7038 23.8963 15.6438 23.8363C15.5838 23.7763 15.55 23.6949 15.55 23.61V22.18H16.22V23.61C16.2202 23.6547 16.2111 23.6989 16.1932 23.7398C16.1752 23.7807 16.1489 23.8174 16.116 23.8476C16.083 23.8777 16.0441 23.9006 16.0017 23.9148C15.9594 23.929 15.9145 23.9342 15.87 23.93Z" fill="#081B31"/>
<path d="M16.3901 23.13H15.3101V23.4H16.3901V23.13Z" fill="#E73324"/>
<path d="M42.63 26.47L46.31 26.58C46.3568 26.5813 46.4034 26.5733 46.447 26.5563C46.4907 26.5393 46.5304 26.5137 46.564 26.4811C46.5976 26.4485 46.6242 26.4094 46.6424 26.3663C46.6607 26.3232 46.67 26.2768 46.67 26.23C46.67 26.1832 46.6607 26.1368 46.6424 26.0937C46.6242 26.0506 46.5976 26.0115 46.564 25.9789C46.5304 25.9463 46.4907 25.9207 46.447 25.9037C46.4034 25.8867 46.3568 25.8787 46.31 25.88L42.63 26C42.5655 26.0026 42.5044 26.0301 42.4597 26.0767C42.4149 26.1233 42.39 26.1854 42.39 26.25C42.3971 26.3093 42.4253 26.3641 42.4693 26.4044C42.5133 26.4448 42.5703 26.468 42.63 26.47Z" fill="#081B31"/>
<path d="M44.32 24.53H42.64C42.5461 24.53 42.47 24.6061 42.47 24.7V25.33C42.47 25.4239 42.5461 25.5 42.64 25.5H44.32C44.4139 25.5 44.49 25.4239 44.49 25.33V24.7C44.49 24.6061 44.4139 24.53 44.32 24.53Z" fill="#081B31"/>
<path d="M44.27 24.69H42.68C42.6358 24.69 42.6 24.7258 42.6 24.77V25.27C42.6 25.3142 42.6358 25.35 42.68 25.35H44.27C44.3142 25.35 44.35 25.3142 44.35 25.27V24.77C44.35 24.7258 44.3142 24.69 44.27 24.69Z" fill="#FF8E1F"/>
<path d="M50.56 28.14L49.75 28C49.605 27.983 49.4712 27.9137 49.3736 27.805C49.276 27.6964 49.2214 27.556 49.22 27.41V27.27C49.2214 27.124 49.276 26.9836 49.3736 26.8749C49.4712 26.7663 49.605 26.697 49.75 26.68L50.56 26.59V28.14Z" fill="#FF8E1F"/>
<path d="M50.6201 28.21H50.7101C50.7684 28.21 50.8244 28.1868 50.8656 28.1456C50.9069 28.1043 50.9301 28.0483 50.9301 27.99V26.77C50.9301 26.7116 50.9069 26.6557 50.8656 26.6144C50.8244 26.5732 50.7684 26.55 50.7101 26.55H50.6201C50.5988 26.55 50.5785 26.5584 50.5635 26.5734C50.5485 26.5884 50.5401 26.6088 50.5401 26.63V28.12C50.5386 28.1313 50.5396 28.1428 50.543 28.1537C50.5464 28.1646 50.5521 28.1746 50.5596 28.1831C50.5672 28.1917 50.5765 28.1985 50.5869 28.2031C50.5974 28.2077 50.6087 28.2101 50.6201 28.21Z" fill="#081B31"/>
</svg>
